Coordinates
version=1
nRows=21
nColumns=22
inDegrees=yes

Units are S.I. units (second, meters, Newtons, ...)
If the header above contains a line with 'inDegrees', this indicates whether rotational values are in degrees (yes) or radians (no).

endheader
time	pelvis_tilt	pelvis_list	pelvis_rotation	pelvis_tx	pelvis_ty	pelvis_tz	hip_flexion_r	hip_adduction_r	hip_rotation_r	knee_angle_r	ankle_angle_r	subtalar_angle_r	hip_flexion_l	hip_adduction_l	hip_rotation_l	knee_angle_l	ankle_angle_l	subtalar_angle_l	lumbar_extension	lumbar_bending	lumbar_rotation
      4.40000000	      8.44099573	     -4.04137299	    -18.08963665	      0.91401984	      0.90710720	     -0.57026518	     15.53860607	      2.22742898	    -32.76251689	    -12.41353949	      2.85265153	     -0.38030249	    -20.27400868	     -5.64059150	    -10.32610831	    -25.02701315	     28.66709654	     -6.86173885	    -13.92743913	      3.77228700	    -19.86269824
      4.41000000	      8.25797840	     -4.54425973	    -18.28151331	      0.92458473	      0.90722076	     -0.56335212	     15.20069554	      2.81657981	    -32.93442558	    -13.20037449	      1.91628442	     -1.92412999	    -20.43816487	     -6.38323573	     -9.99225827	    -26.24311593	     27.89839472	     -7.43005100	    -13.53716434	      4.33754719	    -19.87365043
      4.42000000	      8.05620869	     -5.01892095	    -18.50046420	      0.93508557	      0.90761221	     -0.55629394	     14.86471383	      3.43251590	    -32.96914469	    -13.90654265	      1.14511129	     -3.46543880	    -20.43331623	     -7.10077803	     -9.53912512	    -27.66488981	     26.83034195	     -8.03709586	    -13.11470356	      4.86497443	    -19.84511309
      4.43000000	      7.85082174	     -5.45362718	    -18.75218981	      0.94543282	      0.90824604	     -0.54912251	     14.53695639	      4.05559205	    -32.83173080	    -14.56946646	      0.63741841	     -4.94235293	    -20.23101915	     -7.78437206	     -8.99298262	    -29.34171683	     25.45772813	     -8.66157480	    -12.68929801	      5.33594364	    -19.79503256
      4.44000000	      7.64741464	     -5.83593520	    -19.04669961	      0.95557934	      0.90908185	     -0.54185704	     14.22245391	      4.66946007	    -32.50392657	    -15.20796742	      0.43414452	     -6.31969922	    -19.82147137	     -8.41096575	     -8.32959755	    -31.26663186	     23.75849368	     -9.26304012	    -12.27070364	      5.73333397	    -19.70607875
      4.45000000	      7.45890847	     -6.16370495	    -19.39000040	      0.96547313	      0.91007809	     -0.53452902	     13.91432181	      5.26315724	    -31.98832764	    -15.83456567	      0.53766639	     -7.59051205	    -19.20728244	     -8.97004864	     -7.55360103	    -33.43137801	     21.74166226	     -9.79707115	    -11.88407943	      6.05271811	    -19.57924052
      4.46000000	      7.31611278	     -6.45429666	    -19.78019807	      0.97507632	      0.91121908	     -0.52717387	     13.57784291	      5.83135549	    -31.34277997	    -16.46144294	      0.93053777	     -8.83216533	    -18.42931837	     -9.46570236	     -6.68477250	    -35.80730173	     19.43323184	    -10.22521078	    -11.58214296	      6.30531501	    -19.41668059
      4.47000000	      7.17043514	     -6.70077680	    -20.21408185	      0.98434170	      0.91236404	     -0.51982792	     13.25566887	      6.38783631	    -30.55662023	    -17.05807155	      1.54730377	     -9.96466184	    -17.43547665	     -9.89208941	     -5.67539675	    -38.37069809	     16.91882743	    -10.48153875	    -11.31580597	      6.50501812	    -19.21237393
      4.48000000	      7.05956147	     -6.92284393	    -20.68317261	      0.99322696	      0.91349843	     -0.51253576	     12.90531043	      6.92452770	    -29.69492700	    -17.63486349	      2.32130049	    -11.08975421	    -16.28515048	    -10.25216384	     -4.56544984	    -41.08010597	     14.25521129	    -10.53252364	    -11.14816767	      6.66369630	    -19.00068966
      4.49000000	      6.94858561	     -7.10075495	    -21.18407933	      1.00170151	      0.91450873	     -0.50533068	     12.56229694	      7.42933531	    -28.79186698	    -18.17471191	      3.19784524	    -12.04034325	    -14.94585429	    -10.51843299	     -3.33066448	    -43.89924137	     11.53916469	    -10.38270083	    -11.03753554	      6.77077007	    -18.75505840
      4.50000000	      6.85428701	     -7.31794789	    -21.68410304	      1.00982647	      0.91541034	     -0.49825796	     12.16182463	      7.96288251	    -27.97833847	    -18.65732853	      4.12879588	    -13.01125763	    -13.49870675	    -10.77010925	     -2.00185473	    -46.77303540	      8.85810411	     -9.95793323	    -11.03196347	      6.92424615	    -18.49307704
      4.51000000	      6.74056208	     -7.48339066	    -22.18810997	      1.01750976	      0.91607887	     -0.49138101	     11.79086720	      8.44351797	    -27.20488231	    -19.09769018	      5.00909416	    -13.62195306	    -11.85436530	    -10.92351093	     -0.60607201	    -49.69843953	      6.34360034	     -9.45932251	    -11.06472101	      7.03515292	    -18.26023885
      4.52000000	      6.62343419	     -7.69883561	    -22.67023677	      1.02483960	      0.91658051	     -0.48466219	     11.35623424	      8.96785562	    -26.58633092	    -19.43185918	      5.83755375	    -14.13988713	    -10.10647907	    -11.09914909	      0.78629182	    -52.61316670	      4.10591534	     -8.76349246	    -11.18129002	      7.20553200	    -18.03234289
      4.53000000	      6.49327387	     -7.94285478	    -23.14573473	      1.03181510	      0.91691392	     -0.47807807	     10.87680176	      9.52289717	    -26.07372345	    -19.66022997	      6.58059236	    -14.47960274	     -8.26024226	    -11.28212717	      2.12921568	    -55.46136144	      2.27512341	     -8.04099076	    -11.35691388	      7.41185836	    -17.81406969
      4.54000000	      6.33462095	     -8.22392422	    -23.63251344	      1.03846657	      0.91710563	     -0.47154142	     10.35421221	     10.13147609	    -25.65940246	    -19.76922942	      7.21559329	    -14.66137743	     -6.33547292	    -11.49970655	      3.37899850	    -58.17814785	      0.92852589	     -7.43673700	    -11.57063967	      7.65714955	    -17.56123459
      4.55000000	      6.17000088	     -8.52311708	    -24.14978449	      1.04478328	      0.91721263	     -0.46499568	      9.78699623	     10.77676036	    -25.23805861	    -19.78622622	      7.81528453	    -14.79128887	     -4.37400044	    -11.73044876	      4.50984200	    -60.70397455	      0.07468144	     -6.85600563	    -11.82621006	      7.90343221	    -17.33408698
      4.56000000	      5.95087709	     -8.85797860	    -24.71743933	      1.05084035	      0.91726004	     -0.45833564	      9.18518136	     11.51058579	    -24.79545554	    -19.65863457	      8.22520668	    -14.82432018	     -2.36253199	    -12.02326910	      5.51658904	    -63.00009598	     -0.30970161	     -6.63348846	    -12.06167812	      8.18284809	    -17.06281515
      4.57000000	      5.70681000	     -9.18302423	    -25.36709640	      1.05667892	      0.91732151	     -0.45150747	      8.55393493	     12.26898708	    -24.28309679	    -19.44586165	      8.59858772	    -14.85280349	     -0.35106446	    -12.31150050	      6.39647224	    -65.01288339	     -0.40574254	     -6.55330099	    -12.27532457	      8.42793354	    -16.73838258
      4.58000000	      5.44724873	     -9.50051625	    -26.12426207	      1.06235379	      0.91747373	     -0.44444709	      7.86430122	     13.05584032	    -23.65193375	    -19.13222123	      8.89766102	    -14.87057067	      1.61072228	    -12.59898666	      7.13316022	    -66.71348847	     -0.31187018	     -6.66108598	    -12.46455682	      8.63357694	    -16.33225919
      4.59000000	      5.15574452	     -9.74700581	    -26.99943238	      1.06785618	      0.91768514	     -0.43721342	      7.18527174	     13.80442633	    -22.85187930	    -18.77339608	      9.12536061	    -14.90918380	      3.55477468	    -12.81216570	      7.75461195	    -68.10503211	     -0.08757531	     -7.01265252	    -12.57993630	      8.75347104	    -15.91413592
      4.60000000	      4.88061959	     -9.95356768	    -28.01737323	      1.07323090	      0.91807467	     -0.42974903	      6.42658187	     14.52131435	    -21.88447915	    -18.33993015	      9.30751288	    -14.94157120	      5.37192083	    -12.97692057	      8.21196356	    -69.16479444	      0.24545959	     -7.57005275	    -12.67696331	      8.79295169	    -15.40093088
